HIERARCHY
ROOT Beta:Hips
{
	OFFSET 0.00 0.00 0.00
	CHANNELS 6 Xposition Yposition Zposition Yrotation Xrotation Zrotation
	JOINT Beta:Spine
	{
		OFFSET	0.0000	9.2263	1.5771
		CHANNELS 3 Xrotation Yrotation Zrotation
		JOINT Beta:Spine1
		{
			OFFSET	0.0000	16.2540	-0.1656
			CHANNELS 3 Xrotation Yrotation Zrotation
			JOINT Beta:Spine2
			{
				OFFSET	0.0000	13.6396	-1.2923
				CHANNELS 3 Xrotation Yrotation Zrotation
				JOINT Beta:Neck
				{
					OFFSET	0.0000	13.8774	-4.3542
					CHANNELS 3 Xrotation Yrotation Zrotation
					JOINT Beta:Neck1
					{
						OFFSET	0.0000	4.3400	0.9269
						CHANNELS 3 Xrotation Yrotation Zrotation
						JOINT Beta:Head
						{
							OFFSET	0.0000	4.0266	0.8585
							CHANNELS 3 Xrotation Yrotation Zrotation
							End Site
							{
								OFFSET 0.0000 23.0297 0.1231
							}
						}
					}
				}
				JOINT Beta:LeftShoulder
				{
					OFFSET	6.1442	10.1870	-3.7932
					CHANNELS 3 Zrotation Xrotation Yrotation
					JOINT Beta:LeftArm
					{
						OFFSET	12.3191	-1.1130	-1.7935
						CHANNELS 3 Zrotation Xrotation Yrotation
						JOINT Beta:LeftForeArm
						{
							OFFSET	27.6870	0.0000	0.0000
							CHANNELS 3 Xrotation Zrotation Yrotation
							JOINT Beta:LeftHand
							{
								OFFSET	27.8738	0.0000	0.0000
								CHANNELS 3 Zrotation Yrotation Xrotation
								JOINT Beta:LeftHandThumb1
								{
									OFFSET	2.3785	-1.0029	2.6209
									CHANNELS 3 Zrotation Xrotation Yrotation
									JOINT Beta:LeftHandThumb2
									{
										OFFSET	3.3624	-1.0029	2.8398
										CHANNELS 3 Zrotation Xrotation Yrotation
										JOINT Beta:LeftHandThumb3
										{
											OFFSET	4.5018	-1.3445	2.1783
											CHANNELS 3 Zrotation Xrotation Yrotation
											End Site
											{
												OFFSET 2.6000 -1.0000 1.0000
											}
										}
									}
								}
								JOINT Beta:LeftHandMiddle1
								{
									OFFSET	10.4639	0.6148	0.4298
									CHANNELS 3 Zrotation Xrotation Yrotation
									JOINT Beta:LeftHandMiddle2
									{
										OFFSET	5.7921	0.0000	0.0000
										CHANNELS 3 Zrotation Xrotation Yrotation
										JOINT Beta:LeftHandMiddle3
										{
											OFFSET	3.7132	0.0000	0.0000
											CHANNELS 3 Zrotation Xrotation Yrotation
											End Site
											{
												OFFSET 2.3000 0.0000 0.0000
											}
										}
									}
								}
								JOINT Beta:LeftHandIndex1
								{
									OFFSET	10.3945	0.6148	2.7055
									CHANNELS 3 Zrotation Xrotation Yrotation
									JOINT Beta:LeftHandIndex2
									{
										OFFSET	5.5493	0.0000	0.0000
										CHANNELS 3 Zrotation Xrotation Yrotation
										JOINT Beta:LeftHandIndex3
										{
											OFFSET	3.3911	0.0000	0.0000
											CHANNELS 3 Zrotation Xrotation Yrotation
											End Site
											{
												OFFSET 2.5000 0.0000 0.0000
											}
										}
									}
								}
								JOINT Beta:LeftHandRing1
								{
									OFFSET	10.3252	0.3211	-1.8755
									CHANNELS 3 Zrotation Xrotation Yrotation
									JOINT Beta:LeftHandRing2
									{
										OFFSET	5.4452	0.0000	0.0000
										CHANNELS 3 Zrotation Xrotation Yrotation
										JOINT Beta:LeftHandRing3
										{
											OFFSET	3.7132	0.0000	0.0000
											CHANNELS 3 Zrotation Xrotation Yrotation
											End Site
											{
												OFFSET 2.0000 0.0000 0.0000
											}
										}
									}
								}
								JOINT Beta:LeftHandPinky1
								{
									OFFSET	10.0130	-0.0783	-3.9671
									CHANNELS 3 Zrotation Xrotation Yrotation
									JOINT Beta:LeftHandPinky2
									{
										OFFSET	3.6763	0.0000	0.0000
										CHANNELS 3 Zrotation Xrotation Yrotation
										JOINT Beta:LeftHandPinky3
										{
											OFFSET	2.8113	0.0000	0.0000
											CHANNELS 3 Zrotation Xrotation Yrotation
											End Site
											{
												OFFSET 2.9000 0.0000 0.0000
											}
										}
									}
								}
							}
						}
					}
				}
				JOINT Beta:RightShoulder
				{
					OFFSET	-6.1402	10.1870	-3.7932
					CHANNELS 3 Zrotation Xrotation Yrotation
					JOINT Beta:RightArm
					{
						OFFSET	-12.3231	-1.1130	-1.7935
						CHANNELS 3 Zrotation Xrotation Yrotation
						JOINT Beta:RightForeArm
						{
							OFFSET	-27.6870	0.0000	0.0000
							CHANNELS 3 Xrotation Zrotation Yrotation
							JOINT Beta:RightHand
							{
								OFFSET	-27.8738	0.0000	0.0000
								CHANNELS 3 Zrotation Yrotation Xrotation
								JOINT Beta:RightHandThumb1
								{
									OFFSET	-2.5178	-0.9367	2.5137
									CHANNELS 3 Zrotation Xrotation Yrotation
									JOINT Beta:RightHandThumb2
									{
										OFFSET	-3.2638	-1.0870	2.9669
										CHANNELS 3 Zrotation Xrotation Yrotation
										JOINT Beta:RightHandThumb3
										{
											OFFSET	-4.4165	-1.3703	2.1350
											CHANNELS 3 Zrotation Xrotation Yrotation
											End Site
											{
												OFFSET -2.6000 -1.0000 1.0000
											}
										}
									}
								}
								JOINT Beta:RightHandIndex1
								{
									OFFSET	-10.4665	0.4896	2.7120
									CHANNELS 3 Zrotation Xrotation Yrotation
									JOINT Beta:RightHandIndex2
									{
										OFFSET	-5.3768	0.0000	0.0000
										CHANNELS 3 Zrotation Xrotation Yrotation
										JOINT Beta:RightHandIndex3
										{
											OFFSET	-3.3855	0.0000	0.0000
											CHANNELS 3 Zrotation Xrotation Yrotation
											End Site
											{
												OFFSET -2.6000 0.0000 0.0000
											}
										}
									}
								}
								JOINT Beta:RightHandMiddle1
								{
									OFFSET	-10.7596	0.4896	0.4278
									CHANNELS 3 Zrotation Xrotation Yrotation
									JOINT Beta:RightHandMiddle2
									{
										OFFSET	-5.6168	0.0000	0.0000
										CHANNELS 3 Zrotation Xrotation Yrotation
										JOINT Beta:RightHandMiddle3
										{
											OFFSET	-3.7364	0.0000	0.0000
											CHANNELS 3 Zrotation Xrotation Yrotation
											End Site
											{
												OFFSET -2.3000 0.0000 0.0000
											}
										}
									}
								}
								JOINT Beta:RightHandRing1
								{
									OFFSET	-10.4702	0.3879	-1.9363
									CHANNELS 3 Zrotation Xrotation Yrotation
									JOINT Beta:RightHandRing2
									{
										OFFSET	-5.4013	0.0000	0.0000
										CHANNELS 3 Zrotation Xrotation Yrotation
										JOINT Beta:RightHandRing3
										{
											OFFSET	-3.3916	0.0000	0.0000
											CHANNELS 3 Zrotation Xrotation Yrotation
											End Site
											{
												OFFSET -2.2000 0.0000 0.0000
											}
										}
									}
								}
								JOINT Beta:RightHandPinky1
								{
									OFFSET	-9.9715	-0.1191	-3.9540
									CHANNELS 3 Zrotation Xrotation Yrotation
									JOINT Beta:RightHandPinky2
									{
										OFFSET	-3.6528	0.0000	0.0000
										CHANNELS 3 Zrotation Xrotation Yrotation
										JOINT Beta:RightHandPinky3
										{
											OFFSET	-2.7820	0.0000	0.0000
											CHANNELS 3 Zrotation Xrotation Yrotation
											End Site
											{
												OFFSET -2.9000 0.0000 0.0000
											}
										}
									}
								}
							}
						}
					}
				}
			}
		}
	}
	JOINT Beta:LeftUpLeg
	{
		OFFSET	9.6338	-3.2733	0.0000
		CHANNELS 3 Xrotation Yrotation Zrotation
		JOINT Beta:LeftLeg
		{
			OFFSET	0.0000	-41.7300	-1.7300
			CHANNELS 3 Xrotation Yrotation Zrotation
			JOINT Beta:LeftFoot
			{
				OFFSET	0.0126	-39.1900	-0.8477
				CHANNELS 3 Xrotation Yrotation Zrotation
				JOINT Beta:LeftToeBase
				{
					OFFSET	-0.1833	-12.1931	8.2823
					CHANNELS 3 Xrotation Yrotation Zrotation
					End Site
					{
						OFFSET 0.0000 0.0000 10.1681
					}
				}
			}
		}
	}
	JOINT Beta:RightUpLeg
	{
		OFFSET	-9.6338	-3.2733	0.0000
		CHANNELS 3 Xrotation Yrotation Zrotation
		JOINT Beta:RightLeg
		{
			OFFSET	0.0000	-41.7300	-1.7300
			CHANNELS 3 Xrotation Yrotation Zrotation
			JOINT Beta:RightFoot
			{
				OFFSET	0.0126	-39.1900	-0.8477
				CHANNELS 3 Xrotation Yrotation Zrotation
				JOINT Beta:RightToeBase
				{
					OFFSET	-0.1833	-12.1931	8.2823
					CHANNELS 3 Xrotation Yrotation Zrotation
					End Site
					{
						OFFSET 0.0032 0.0000 10.1681
					}
				}
			}
		}
	}
}
MOTION
Frames: 4
Frame Time: 0.0333333
0.0011 78.1710 -0.0687 -2.2667 -5.1755 -3.8441 7.4912 1.4324 6.2962 -4.0049 -0.0595 2.9884 -4.0197 -0.5425 -0.0158 8.9271 -0.2057 -1.2494 -0.0000 0.0000 -0.0000 6.7841 -0.4507 -4.4732 19.7406 12.1591 -10.3118 24.0665 -61.0111 3.6359 -23.9681 -4.6542 -18.6116 8.3857 0.1061 -66.6475 6.5251 10.1531 5.9458 6.3239 8.0195 16.4455 22.3827 4.8191 12.9019 -7.0487 1.0575 0.1418 -9.0074 -1.1348 -0.0147 -11.5012 0.1749 0.0490 -6.4278 -0.6607 3.6806 -12.7546 1.8651 0.1964 -11.5531 0.8470 0.0768 -6.7400 -1.8385 0.4482 -19.9466 -4.8681 -1.0365 -13.1790 -2.9388 -0.2823 -7.3309 -7.0113 0.3905 -13.2001 0.2165 -0.6108 -17.2572 -4.9982 0.3231 -22.8336 11.7498 10.1908 -19.6036 -57.5720 3.1500 -18.3565 -9.2070 15.1219 -2.5814 0.4420 -71.1567 -6.4928 10.1321 -5.9431 -6.3227 8.0104 -16.4638 -21.9328 7.7734 -18.5685 6.4782 -0.6600 -3.6776 12.8302 1.8642 -0.2011 11.5730 0.8483 -0.0789 7.0982 1.0534 -0.1464 9.0975 -1.1400 0.0224 11.5486 0.1760 -0.0512 6.7986 -1.8432 -0.4555 20.0373 -4.8660 1.0486 13.2119 -2.9472 0.2858 7.3977 -7.0162 -0.4008 13.2980 0.2219 0.6122 17.2809 -5.0114 -0.3217 -40.8177 26.2247 32.5774 81.1548 -9.7041 10.2772 -44.7789 -19.5356 -2.6266 1.3442 0.0048 -0.8012 -43.4012 -26.7714 -21.7733 75.8719 -4.3472 -9.8338 -32.7904 2.4153 9.9238 0.6264 0.0000 -0.0000 
0.1599 77.1534 -0.2359 -2.4065 -5.8692 -3.6960 8.5040 1.5857 6.0806 -3.9350 -0.0121 3.0103 -3.9497 -0.4965 0.0074 8.7713 -0.2282 -1.2431 -0.0000 0.0000 -0.0000 6.3528 -0.9080 -4.3451 20.3936 11.8555 -10.2940 22.5803 -59.3229 0.9475 -24.0530 -3.8255 -16.1495 9.8340 0.8624 -67.9697 6.4973 10.1310 5.9415 6.3203 8.0121 16.4628 22.3795 4.8070 12.9099 -7.0954 1.0538 0.1447 -9.0918 -1.1396 -0.0230 -11.5457 0.1760 0.0497 -6.4758 -0.6600 3.6766 -12.8254 1.8644 0.1993 -11.5718 0.8484 0.0774 -6.7953 -1.8428 0.4537 -20.0317 -4.8658 -1.0502 -13.2100 -2.9465 -0.2871 -7.3940 -7.0158 0.3986 -13.2916 0.2217 -0.6136 -17.2797 -5.0104 0.3198 -21.0200 11.8507 9.8641 -18.4378 -56.3814 5.9911 -18.0300 -9.3159 13.8060 -2.5676 0.5799 -72.6436 -6.5463 10.1844 -5.9535 -6.3280 8.0251 -16.4285 -21.9399 7.7976 -18.5506 6.3769 -0.6613 -3.6845 12.6842 1.8647 -0.1946 11.5307 0.8449 -0.0774 7.0013 1.0607 -0.1418 8.9242 -1.1289 0.0044 11.4505 0.1734 -0.0496 6.6852 -1.8335 -0.4476 19.8567 -4.8685 1.0187 13.1422 -2.9289 0.2753 7.2675 -7.0040 -0.3901 13.1069 0.2106 0.6058 17.2273 -4.9826 -0.3286 -40.6811 25.5672 32.2842 83.2662 -9.7033 10.2793 -45.9445 -18.8795 -2.1868 1.2621 0.0052 -0.8363 -44.2135 -26.1278 -22.5663 78.1545 -4.6126 -9.8130 -33.7373 2.5884 10.0490 0.6643 0.0000 0.0000 
0.2627 77.4325 -0.4073 -2.5526 -6.4631 -3.1695 8.6725 1.6604 5.4978 -3.8883 0.0383 2.9566 -3.9030 -0.4431 -0.0456 8.7309 -0.2150 -1.2012 -0.0000 0.0000 -0.0000 6.7437 -0.9813 -4.1372 19.8017 11.3494 -10.0284 20.8086 -57.7195 -2.4578 -23.9075 -3.0678 -13.6279 10.5141 1.5040 -68.6106 6.5288 10.1620 5.9481 6.3234 8.0208 16.4419 22.3831 4.8212 12.8992 -7.0382 1.0581 0.1421 -8.9896 -1.1331 -0.0124 -11.4877 0.1745 0.0488 -6.4160 -0.6607 3.6806 -12.7393 1.8647 0.1955 -11.5468 0.8463 0.0766 -6.7284 -1.8371 0.4491 -19.9251 -4.8672 -1.0325 -13.1687 -2.9357 -0.2809 -7.3172 -7.0085 0.3925 -13.1790 0.2150 -0.6098 -17.2480 -4.9933 0.3239 -18.4800 11.2591 9.6951 -15.0716 -55.7820 11.1632 -19.4336 -9.5557 12.3324 -2.5451 -0.1167 -73.4255 -6.5479 10.1839 -5.9532 -6.3286 8.0255 -16.4279 -21.9401 7.7981 -18.5506 6.3757 -0.6613 -3.6849 12.6819 1.8648 -0.1946 11.5308 0.8449 -0.0774 6.9999 1.0609 -0.1414 8.9213 -1.1290 0.0043 11.4502 0.1734 -0.0496 6.6833 -1.8335 -0.4468 19.8548 -4.8689 1.0186 13.1422 -2.9291 0.2753 7.2655 -7.0044 -0.3887 13.1043 0.2105 0.6058 17.2278 -4.9829 -0.3287 -39.5051 25.8255 31.1646 82.6259 -9.7034 10.2784 -44.9545 -18.3558 -1.8340 0.7958 0.0125 -1.2956 -43.8698 -25.9557 -23.1474 77.7097 -4.3638 -9.8188 -33.3291 2.7636 9.8783 0.6691 0.0000 -0.0000 
0.3124 78.8824 -0.5803 -2.7289 -6.9216 -2.3681 8.4026 1.6418 4.7008 -3.8739 0.0645 2.8182 -3.8889 -0.4102 -0.1843 8.7589 -0.1760 -1.1087 -0.0000 0.0000 -0.0000 7.3795 -0.7460 -3.8257 18.4122 10.9375 -9.9335 19.8547 -56.8485 -4.6901 -23.6139 -2.7342 -12.2393 10.1960 1.7300 -68.7720 6.5449 10.1761 5.9510 6.3253 8.0251 16.4316 22.3850 4.8283 12.8943 -7.0102 1.0603 0.1405 -8.9392 -1.1300 -0.0073 -11.4602 0.1738 0.0484 -6.3869 -0.6611 3.6828 -12.6969 1.8650 0.1937 -11.5351 0.8454 0.0761 -6.6954 -1.8344 0.4463 -19.8735 -4.8682 -1.0241 -13.1494 -2.9307 -0.2780 -7.2794 -7.0054 0.3884 -13.1239 0.2119 -0.6081 -17.2335 -4.9855 0.3259 -15.4477 10.6241 9.9638 -11.8616 -54.8991 16.0695 -21.3605 -9.7212 11.0859 -2.5409 -1.0635 -73.6435 -6.5303 10.1663 -5.9497 -6.3269 8.0206 -16.4396 -21.9377 7.7901 -18.5566 6.4095 -0.6609 -3.6826 12.7304 1.8647 -0.1967 11.5450 0.8461 -0.0779 7.0321 1.0585 -0.1429 8.9789 -1.1327 0.0103 11.4830 0.1743 -0.0501 6.7210 -1.8368 -0.4492 19.9150 -4.8682 1.0286 13.1656 -2.9352 0.2788 7.3087 -7.0085 -0.3920 13.1679 0.2143 0.6080 17.2460 -4.9926 -0.3264 -37.0567 26.8576 29.1970 79.1460 -9.7076 10.2171 -42.8254 -17.6223 -1.9496 0.4300 0.0124 -1.2907 -42.4590 -26.2670 -23.4588 74.7689 -3.4350 -9.8608 -31.7044 2.9297 9.3802 0.6551 -0.0000 -0.0000 
